<?xml version="1.0" encoding="UTF-8"?>
<svg id="Capa_11" data-name="Capa 11" xmlns="http://www.w3.org/2000/svg" xmlns:xlink="http://www.w3.org/1999/xlink" viewBox="0 0 750 750">
  <defs>
    <style>
      .cls-1 {
        stroke-width: 9.07px;
      }

      .cls-1, .cls-2, .cls-3, .cls-4 {
        fill: #ec9076;
      }

      .cls-1, .cls-5, .cls-6, .cls-7, .cls-3 {
        stroke-linecap: round;
      }

      .cls-1, .cls-5, .cls-6, .cls-7, .cls-3, .cls-4 {
        stroke: #000;
        stroke-miterlimit: 10;
      }

      .cls-8 {
        fill: #f9b5a5;
      }

      .cls-9 {
        fill: #fff;
      }

      .cls-10 {
        fill: url(#Degradado_sin_nombre_12-2);
      }

      .cls-2 {
        opacity: .31;
      }

      .cls-5 {
        stroke-width: 9.38px;
      }

      .cls-5, .cls-6, .cls-7 {
        fill: none;
      }

      .cls-6 {
        stroke-width: 11.94px;
      }

      .cls-7 {
        stroke-width: 17.76px;
      }

      .cls-3, .cls-4 {
        stroke-width: 8.95px;
      }

      .cls-11 {
        fill: url(#Degradado_sin_nombre_12);
      }
    </style>
    <linearGradient id="Degradado_sin_nombre_12" data-name="Degradado sin nombre 12" x1="196.04" y1="391.05" x2="279.28" y2="391.05" gradientUnits="userSpaceOnUse">
      <stop offset="0" stop-color="#fff" stop-opacity="0"/>
      <stop offset=".07" stop-color="#fcf1ee" stop-opacity=".1"/>
      <stop offset=".3" stop-color="#f5c5b8" stop-opacity=".42"/>
      <stop offset=".47" stop-color="#f0a996" stop-opacity=".63"/>
      <stop offset=".55" stop-color="#ef9f89" stop-opacity=".7"/>
      <stop offset=".58" stop-color="#ee9c85" stop-opacity=".76"/>
      <stop offset=".65" stop-color="#ed957d" stop-opacity=".89"/>
      <stop offset=".71" stop-color="#ec9177" stop-opacity=".97"/>
      <stop offset=".76" stop-color="#ec9076"/>
    </linearGradient>
    <linearGradient id="Degradado_sin_nombre_12-2" data-name="Degradado sin nombre 12" x1="-1581.92" y1="391.05" x2="-1498.68" y2="391.05" gradientTransform="translate(-989.35) rotate(-180) scale(1 -1)" xlink:href="#Degradado_sin_nombre_12"/>
  </defs>
  <rect class="cls-9" x="-24.36" y="-35.62" width="793.5" height="820.5"/>
  <g>
    <path d="M204.72,347.63c-9.83,.37-18.67-5.92-21.54-15.32-3.15-10.33-4.39-23.05-4.39-27.28,0-7.78-2.21-65.71,1.68-77.38,3.89-11.67,11.67-38.9,31.12-66.14,19.45-27.23,46.69-54.47,58.36-62.25,11.67-7.78,25.61-14.63,19.45-27.23-5.53-11.33-3.89-11.67-15.56-19.45-11.67-7.78-15.56-7.78-11.67-15.56,3.89-7.78,11.67-11.67,31.12-15.56,19.45-3.89,3.89-3.89,50.58-3.89s58.36-11.67,81.7,3.89c23.34,15.56,19.45,11.67,46.69,23.34,27.23,11.67,46.69,11.67,66.14,38.9,19.45,27.23,66.04,126.95,69.93,142.51,3.26,13.04,5.17,56.44,5.25,70.93,.02,2.9-1.51,13.08-2.63,15.76l-7.68,23.58c-3.83,9.19-13.44,14.59-23.28,13.07l-82.35-12.67c-1.36-.21-2.74-.29-4.11-.24l-288.81,10.97Z"/>
    <path class="cls-4" d="M196.04,352.15s-27.23-19.45-35.01-7.78c-7.78,11.67,19.45,151.73,35.01,151.73s23.34-105.04,19.45-108.93l-19.45-35.01Z"/>
    <path class="cls-4" d="M592.49,352.15s27.23-19.45,35.01-7.78c7.78,11.67-19.45,151.73-35.01,151.73-15.56,0-23.34-105.04-19.45-108.93l19.45-35.01Z"/>
    <path class="cls-4" d="M394.45,733.41h0c-111.73,0-202.3-195.62-202.3-307.35v-152.7c0-87.56,70.98-158.54,158.54-158.54h87.54c87.56,0,158.54,70.98,158.54,158.54v152.7c0,111.73-90.57,307.35-202.3,307.35Z"/>
    <path class="cls-11" d="M279.28,138.17c-49.57,26.39-83.24,78.02-83.24,137.39v150.35c0,62.83,29.55,152.58,75.71,218.02-36.48-166.99-34.95-341.75,7.53-505.76Z"/>
    <path class="cls-10" d="M509.33,138.17c49.57,26.39,83.24,78.02,83.24,137.39v150.35c0,62.83-29.55,152.58-75.71,218.02,36.48-166.99,34.95-341.75-7.53-505.76Z"/>
    <path class="cls-2" d="M406.12,577.79s0-19.45-11.67-19.45-50.58,11.67-62.25,15.56c-11.67,3.89-19.45,11.67-19.45,11.67l89.48-3.89h3.89"/>
    <path class="cls-2" d="M406.12,577.79s0-19.45,11.67-19.45c11.67,0,50.58,11.67,62.25,15.56,11.67,3.89,19.45,11.67,19.45,11.67l-89.48-3.89h-3.89"/>
    <path class="cls-2" d="M382.78,624.48s19.45,15.56,46.69,0c0,0-27.23,3.89-46.69,0Z"/>
    <path class="cls-6" d="M229.11,319.08s93.37-11.67,101.15-3.89"/>
    <path class="cls-6" d="M559.8,319.08s-93.37-11.67-101.15-3.89"/>
    <path class="cls-1" d="M324.81,590.4s64.19,34.74,144.92,0"/>
    <path class="cls-3" d="M353.85,494.15s42.8,50.58,89.48,0"/>
    <circle class="cls-8" cx="400.29" cy="482.48" r="13.62"/>
    <path d="M582.06,507.32l-99.74,133.72c-12.45,16.7-32.06,26.53-52.89,26.53h-73.04c-20.83,0-40.44-9.84-52.89-26.53l-99.74-133.72c57.8,215.43,194.41,228.56,194.41,228.56l-.11-1.89c21.86-3.93,132.08-33.13,184.01-226.68Z"/>
    <line class="cls-7" x1="304.9" y1="555.26" x2="381.77" y2="532.93"/>
    <line class="cls-7" x1="491.42" y1="555.26" x2="414.55" y2="532.93"/>
    <path class="cls-5" d="M531.76,350.13s-54.35,2.41-64.68,22.75c-.84,1.65,.82,3.46,2.55,2.8,11.05-4.21,42.4-13.95,63.2,1.65"/>
    <path class="cls-5" d="M256.64,356.53s54.35,2.41,64.68,22.75c.84,1.65-.82,3.46-2.55,2.8-11.05-4.21-42.4-13.95-63.2,1.65"/>
  </g>
</svg>