<?xml version="1.0" encoding="UTF-8"?>
<svg id="Capa_11" data-name="Capa 11" xmlns="http://www.w3.org/2000/svg" viewBox="0 0 304 45">
  <defs>
    <style>
      .cls-1 {
        fill: #ee434f;
      }
    </style>
  </defs>
  <path class="cls-1" d="M32.2,38.43c-1.85,0-3.65-.34-5.4-1.03-1.76-.69-3.34-1.74-4.74-3.14-1.35-1.38-2.39-2.93-3.1-4.66-.72-1.73-1.07-3.56-1.07-5.48s.36-3.79,1.07-5.52c.71-1.73,1.75-3.27,3.1-4.62s2.99-2.46,4.76-3.16c1.77-.7,3.57-1.05,5.4-1.05s3.63,.35,5.38,1.05,3.34,1.76,4.74,3.16l-4.64,4.64c-.75-.75-1.61-1.32-2.58-1.7-.96-.38-1.94-.57-2.93-.57s-1.96,.19-2.91,.57c-.95,.38-1.8,.94-2.56,1.7-.73,.75-1.29,1.6-1.68,2.54-.39,.94-.58,1.92-.58,2.96s.19,2.02,.58,2.95c.39,.92,.95,1.76,1.68,2.52,.75,.75,1.61,1.32,2.56,1.7,.95,.38,1.92,.57,2.91,.57s1.96-.19,2.93-.57c.96-.38,1.82-.94,2.58-1.7l4.64,4.68c-1.4,1.4-2.98,2.45-4.72,3.14-1.74,.69-3.55,1.03-5.42,1.03Z"/>
  <path class="cls-1" d="M58.49,9.84h6.59v28.64h-6.59v-10.81h-8.27v10.81h-6.59V9.84h6.59v11.24h8.27V9.84Z"/>
  <path class="cls-1" d="M84.79,38.47l-1.13-3.47h-9.01l-1.17,3.47h-6.98l9.75-28.64h6.24l9.25,28.64h-6.94Zm-7.88-10.07h4.64l-2.26-6.94-2.38,6.94Z"/>
  <path class="cls-1" d="M112.09,21.89c0,1.64-.31,3.18-.92,4.62-.61,1.44-1.46,2.71-2.54,3.8-1.08,1.09-2.34,1.96-3.77,2.59-1.43,.64-2.96,.97-4.6,1v4.56h-6.59V9.84h6.59c1.64,.03,3.17,.36,4.6,1.01,1.43,.65,2.69,1.52,3.77,2.61,1.08,1.09,1.92,2.36,2.54,3.8,.61,1.44,.92,2.98,.92,4.62Zm-11.82,5.42c.73-.03,1.41-.19,2.05-.49,.64-.3,1.19-.69,1.66-1.17,.47-.48,.84-1.05,1.11-1.7s.41-1.34,.41-2.08-.14-1.42-.41-2.07-.64-1.22-1.11-1.7c-.47-.48-1.02-.87-1.66-1.17-.64-.3-1.32-.46-2.05-.49v10.88Z"/>
  <path class="cls-1" d="M132.38,38.47l-1.13-3.47h-9.01l-1.17,3.47h-6.98l9.75-28.64h6.24l9.25,28.64h-6.94Zm-7.88-10.07h4.64l-2.26-6.94-2.38,6.94Z"/>
  <path class="cls-1" d="M149.94,31.06c-.34,.05-.68,.09-1.01,.12-.34,.03-.69,.05-1.05,.08v7.22h-6.59V9.95h6.59c1.64,.03,3.17,.32,4.6,.9,1.43,.57,2.69,1.34,3.77,2.3,1.08,.96,1.92,2.08,2.54,3.35,.61,1.27,.92,2.64,.92,4.09,0,1.53-.33,2.95-.98,4.27s-1.56,2.45-2.73,3.41l6.32,10.21h-7.76l-4.6-7.41Zm-2.07-6.44c.7-.03,1.37-.15,2.01-.37,.64-.22,1.2-.51,1.68-.88,.48-.36,.86-.79,1.13-1.27,.27-.48,.41-1,.41-1.54s-.14-1.05-.41-1.52c-.27-.47-.65-.88-1.13-1.25-.48-.36-1.04-.66-1.68-.88-.64-.22-1.31-.34-2.01-.37v8.08Z"/>
  <path class="cls-1" d="M173.85,31.06c-.34,.05-.68,.09-1.01,.12-.34,.03-.69,.05-1.05,.08v7.22h-6.59V9.95h6.59c1.64,.03,3.17,.32,4.6,.9,1.43,.57,2.69,1.34,3.77,2.3,1.08,.96,1.92,2.08,2.54,3.35,.61,1.27,.92,2.64,.92,4.09,0,1.53-.33,2.95-.98,4.27s-1.56,2.45-2.73,3.41l6.32,10.21h-7.76l-4.6-7.41Zm-2.07-6.44c.7-.03,1.37-.15,2.01-.37,.64-.22,1.2-.51,1.68-.88,.48-.36,.86-.79,1.13-1.27,.27-.48,.41-1,.41-1.54s-.14-1.05-.41-1.52c-.27-.47-.65-.88-1.13-1.25-.48-.36-1.04-.66-1.68-.88-.64-.22-1.31-.34-2.01-.37v8.08Z"/>
  <path class="cls-1" d="M201.45,9.8c1.97,0,3.83,.38,5.57,1.13,1.74,.75,3.26,1.77,4.56,3.06s2.32,2.8,3.08,4.55c.75,1.74,1.13,3.6,1.13,5.58s-.38,3.84-1.13,5.58c-.75,1.74-1.78,3.26-3.08,4.55-1.3,1.29-2.82,2.31-4.56,3.06-1.74,.75-3.6,1.13-5.57,1.13s-3.83-.38-5.57-1.13c-1.74-.75-3.25-1.78-4.54-3.06-1.29-1.29-2.3-2.8-3.06-4.55-.75-1.74-1.13-3.6-1.13-5.58s.38-3.84,1.13-5.58c.75-1.74,1.77-3.26,3.06-4.55s2.8-2.31,4.54-3.06c1.74-.75,3.6-1.13,5.57-1.13Zm.02,22.04c1.07,0,2.07-.2,3-.6,.94-.4,1.76-.96,2.46-1.66,.7-.7,1.25-1.52,1.66-2.46,.4-.94,.6-1.94,.6-3s-.2-2.07-.6-3c-.4-.94-.96-1.76-1.66-2.46-.7-.7-1.52-1.25-2.46-1.66-.94-.4-1.94-.6-3-.6s-2.07,.2-3,.6c-.94,.4-1.76,.96-2.46,1.66-.7,.7-1.26,1.52-1.66,2.46-.4,.94-.6,1.94-.6,3s.2,2.07,.6,3c.4,.94,.96,1.76,1.66,2.46,.7,.7,1.52,1.26,2.46,1.66,.94,.4,1.94,.6,3,.6Z"/>
  <path class="cls-1" d="M226.28,39.02c-.91,0-1.81-.12-2.71-.37-.9-.25-1.75-.63-2.56-1.15-1.4-.91-2.5-2.09-3.28-3.53-.78-1.44-1.17-3.02-1.17-4.74h6.59c0,.78,.17,1.39,.51,1.81,.34,.43,.64,.72,.9,.88,.47,.31,.98,.48,1.52,.51,.55,.03,1.08-.08,1.6-.31,.36-.16,.66-.35,.88-.58,.22-.23,.39-.46,.51-.68,.12-.22,.19-.44,.21-.64,.03-.21,.04-.38,.04-.51s-.01-.3-.04-.51c-.03-.21-.1-.43-.21-.66-.12-.23-.29-.46-.51-.68-.22-.22-.51-.42-.88-.6-.29-.13-.59-.25-.92-.35-.33-.1-.67-.22-1.03-.35-.65-.21-1.33-.44-2.03-.7-.7-.26-1.4-.61-2.11-1.05-.91-.57-1.68-1.29-2.3-2.15-.62-.86-1.07-1.78-1.35-2.77-.27-.99-.36-2.01-.27-3.06,.09-1.05,.38-2.06,.88-3.02,.47-.88,1.05-1.65,1.75-2.3,.7-.65,1.48-1.16,2.34-1.54,.86-.38,1.78-.6,2.77-.68,.99-.08,1.99,.01,3,.27,.99,.23,1.88,.6,2.68,1.11,.8,.51,1.49,1.12,2.07,1.83,.58,.72,1.03,1.52,1.34,2.4,.31,.88,.47,1.81,.47,2.77h-6.56c0-.6-.19-1.01-.57-1.25-.38-.23-.71-.39-1-.47-.05,0-.18-.02-.37-.06-.19-.04-.42-.04-.66,0-.25,.04-.5,.13-.76,.27-.26,.14-.47,.37-.62,.68-.21,.42-.25,.85-.12,1.31,.13,.46,.39,.81,.78,1.07,.36,.21,.77,.4,1.21,.57,.44,.17,.91,.33,1.4,.49,.44,.13,.89,.27,1.34,.43,.45,.16,.91,.34,1.38,.55,1.71,.78,3.04,1.92,4.01,3.43,.97,1.51,1.45,3.19,1.45,5.03s-.49,3.49-1.45,4.99c-.97,1.51-2.31,2.65-4.01,3.43-.67,.31-1.36,.54-2.06,.68-.7,.14-1.4,.21-2.11,.21Z"/>
  <path class="cls-1" d="M264.05,9.8l-14.71,14.36,14.71,14.32h-9.52l-9.21-9.01v9.01h-6.59V9.8h6.59v9.05l9.25-9.05h9.48Z"/>
  <path class="cls-1" d="M268.92,38.47l3.32-8.11-9.79-20.75h7.3l5.89,12.45,5.03-12.45h7.14l-11.74,28.87h-7.14Z"/>
</svg>